HIERARCHY
ROOT base
{
	OFFSET 0.0 0.0 0.0
	CHANNELS 6 Xposition Yposition Zposition Zrotation Yrotation Xrotation
	JOINT root
	{
		OFFSET 0 0 0
		CHANNELS 6 Xposition Yposition Zposition Zrotation Yrotation Xrotation
		JOINT chest
		{
			OFFSET 0 4.72302 0
			CHANNELS 3 Zrotation Yrotation Xrotation
			JOINT neck
			{
				OFFSET 0 4.47788 0
				CHANNELS 3 Zrotation Yrotation Xrotation
				End Site
				{
					OFFSET 0.0 0.0 0.0
				}
			}
			JOINT right_shoulder
			{
				OFFSET -0.481 4.87 3.6622
				CHANNELS 3 Zrotation Yrotation Xrotation
				JOINT right_elbow
				{
					OFFSET 0 -5.49576 0
					CHANNELS 3 Zrotation Yrotation Xrotation
					JOINT right_wrist
					{
						OFFSET 0 -5.17894 0
						CHANNELS 3 Zrotation Yrotation Xrotation
						End Site
						{
							OFFSET 0.0 0.0 0.0
						}
					}
				}
			}
			JOINT left_shoulder
			{
				OFFSET -0.481 4.87 -3.6622
				CHANNELS 3 Zrotation Yrotation Xrotation
				JOINT left_elbow
				{
					OFFSET 0 -5.49576 0
					CHANNELS 3 Zrotation Yrotation Xrotation
					JOINT left_wrist
					{
						OFFSET 0 -5.17894 0
						CHANNELS 3 Zrotation Yrotation Xrotation
						End Site
						{
							OFFSET 0.0 0.0 0.0
						}
					}
				}
			}
		}
		JOINT right_hip
		{
			OFFSET 0 0 1.69774
			CHANNELS 3 Zrotation Yrotation Xrotation
			JOINT right_knee
			{
				OFFSET 0 -8.43092 0
				CHANNELS 3 Zrotation Yrotation Xrotation
				JOINT right_ankle
				{
					OFFSET 0 -8.1974 0
					CHANNELS 3 Zrotation Yrotation Xrotation
					End Site
					{
						OFFSET 0.0 0.0 0.0
					}
				}
			}
		}
		JOINT left_hip
		{
			OFFSET 0 0 -1.69774
			CHANNELS 3 Zrotation Yrotation Xrotation
			JOINT left_knee
			{
				OFFSET 0 -8.43092 0
				CHANNELS 3 Zrotation Yrotation Xrotation
				JOINT left_ankle
				{
					OFFSET 0 -8.1974 0
					CHANNELS 3 Zrotation Yrotation Xrotation
					End Site
					{
						OFFSET 0.0 0.0 0.0
					}
				}
			}
		}
	}
	JOINT red_arrow
	{
		OFFSET 0 0 0
		CHANNELS 3 Zrotation Yrotation Xrotation
		End Site
		{
			OFFSET 0.0 0.0 0.0
		}
	}
	JOINT blue_arrow
	{
		OFFSET 0 0 0
		CHANNELS 3 Zrotation Yrotation Xrotation
		End Site
		{
			OFFSET 0.0 0.0 0.0
		}
	}
}
MOTION
Frames: 12
Frame Time: 0.0333333333333333
650.010046494007 0 -67.6107381358743 0 5.74175615610365 0 0 15.6961487293243 0 -18.5398731045801 6.56703722046644 3.49244893575335 -3.68865068148318 -1.1100397496366 -9.24749405776598 -2.77176939127636 -5.07881709414108 0.387926629393789 -8.87731948007535 24.6514468833499 -29.2772246372001 70.4765283092112 0 0 0 0 0 -22.3385417810798 0.0433573526740582 28.2765024513893 66.7519578529115 0 0 0 0 0 5.6781254011291 -6.62837204303858 -12.3601939083061 -94.0968934026244 0 0 -14.9380597849274 3.38433804587789 28.7672876509027 52.4889884656746 7.90867582616234 -7.54450114751981 -47.9334308969762 0 0 13.8837355986052 4.79904878837164 5.22203490815956 0 0 0 0 0 0
651.831937891245 0 -67.9547588996589 0 6.24042629943057 0 0 15.6182675123215 0 -20.6851506067663 8.87399656559321 3.5679810697255 -2.1661857243563 -2.1990748511982 -8.44205007096867 -3.21688271260962 -4.17699396934721 -0.179163381309761 -19.7618587777593 22.8652775770064 -31.8160724017904 63.5074062612912 0 0 0 0 0 -4.16210540902757 -9.57739865655766 29.2072587345041 70.5654778627723 0 0 0 0 0 22.9349543708078 -5.51102426817388 -15.5007627824157 -101.020417107645 0 0 -6.44978359402197 0.960508878417272 29.9435415744651 50.4213603674779 4.38662698552349 -10.5852506234814 -52.6242340642117 0 0 22.9095983625649 6.16026298527743 4.90698218773253 0 0 0 0 0 0
653.588192671537 0 -68.2131732016802 0 6.76210101773675 0 0 15.7620260477066 0 -23.1191698454454 9.12977747794581 2.26605316750168 -1.34540798200331 -3.09328281304252 -5.57372956430199 -3.93307100405938 -2.68114273208152 -0.505096324613228 -30.3135838408864 21.2229128753378 -35.4890818062198 55.5551809351854 0 0 0 0 0 15.0758404134548 -20.3085483739491 30.9361145008783 75.6430814728948 0 0 0 0 0 43.6850082059239 -2.01259591757081 -16.7390787300246 -101.86610380992 0 0 2.60432635654546 -1.46644658624963 30.8856803028948 46.0632515748771 -0.129453801580264 -11.1233201472692 -51.3443795571563 0 0 28.9171480701959 8.13865973084441 4.56521836708575 0 0 0 0 0 0
655.497172570229 0 -68.4071640819311 0 7.23760384927072 0 0 16.1015246868134 0 -25.2156851734141 8.1859225662869 -0.084982787056676 -0.984067544060354 -4.00603285135932 -1.02708789164246 -4.6262897014196 -1.03039760985222 0.0458428329479016 -42.211802550557 19.6593997252096 -38.9935260054289 47.0482417956371 0 0 0 0 0 33.5305796702748 -30.4256413557438 32.1125762513904 82.3405054258208 0 0 0 0 0 62.9279376562959 2.81673700329433 -13.9727034821722 -98.4076785048187 0 0 12.3374676706959 -3.22837302716664 30.7086634314152 37.561017541779 -4.04275352527749 -8.57365785962111 -43.6123834355539 0 0 31.9584046652837 9.04185217617206 4.15254139099589 0 0 0 0 0 0
657.597115325928 0 -68.5629677563906 0 7.50252862720414 0 0 16.5272698044777 0 -27.0245499295592 4.48634505379308 -2.61317585821847 -1.20260081220946 -3.34277954035035 3.47019341782329 -4.61024081890655 0.4311515179376 1.74247894615389 -53.1852753104213 14.9223102535061 -41.8686836967058 45.3272356153744 0 0 0 0 0 48.0397361570632 -37.8011662613156 33.1768945378101 90.4598586507276 0 0 0 0 0 77.1643976729775 6.81776960199578 -6.93361250757366 -87.5901546709468 0 0 19.3911042340322 -3.8723505037233 30.0565146575756 24.9921089679046 -4.41423501511084 -3.11306118597103 -29.5449360662794 0 0 29.2120802293605 9.63783356989538 3.12448894006642 0 0 0 0 0 0
659.780566799641 0 -68.707203117013 0 7.53187647908651 0 0 16.9481995224953 0 -28.4135440472668 0.490440923435223 -4.31967673891684 -2.37852129051192 -3.45483529462896 6.68092411819011 -5.19686745936695 1.88079511980575 3.59519234567998 -59.4931956575894 6.73901170057892 -42.7590853757468 48.8077975635753 0 0 0 0 0 53.7723965337428 -40.6512374325585 35.8515879765769 98.0382130820452 0 0 0 0 0 84.2676515394771 7.29111336876755 -0.187525107449684 -70.8039470874541 0 0 22.7465765211316 -3.9649488717881 28.8490298051428 13.4826208045645 -2.44729159082863 1.08034693401208 -16.8406202855156 0 0 14.9486253223965 10.9196429095917 -0.0250680845338377 0 0 0 0 0 0
662.07964322567 0 -68.8301565676928 0 7.43507904148415 0 0 17.2438280701637 0 -28.1433681790231 -1.62183254120373 -5.23384856194275 -5.25399292117261 -5.39639738392168 8.39588142753642 -5.86448710864859 3.02472101647006 5.18408293672977 -61.1716568578854 -1.8595947223995 -41.2651853750712 53.9589964620047 0 0 0 0 0 50.6497559839764 -39.8653642611515 40.0273726498235 103.00692298623 0 0 0 0 0 84.4659037315758 5.27115549639706 4.09494443950936 -54.5656845999365 0 0 23.5940408152929 -3.44817987847893 26.1967828075003 4.15888207507826 0.412961258527697 3.75196078645337 -9.52035223594971 0 0 -9.00742685017906 7.53807991862141 -4.26393903316965 0 0 0 0 0 0
664.516516369581 0 -68.9495919793844 0 7.32731553982794 0 0 17.3170811772346 0 -26.0635236413958 -1.83944154638238 -5.62787245774531 -8.56952630664958 -7.85147919527934 8.73851653696839 -5.39762482178977 2.93870776247991 6.02927109946109 -58.9603222770785 -8.67313875978133 -37.9821149658776 58.9519979339729 0 0 0 0 0 42.6929476985624 -37.1940831742499 43.1887255052766 103.885408256899 0 0 0 0 0 80.0833844061621 2.63402563505369 6.06032919252005 -42.7462266563371 0 0 22.7576269308787 -1.97252686381575 22.3535151762197 -3.19057072318975 1.87315137373204 5.6099586795254 -10.5360073419461 0 0 -25.9283443214806 2.55452661061775 -8.60095693354787 0 0 0 0 0 0
667.042101716995 0 -69.1014466017485 0 7.24295156007576 0 0 17.1761766433716 0 -23.03709597036 -1.47514471962736 -5.73828461503857 -11.123194733979 -9.43495872442626 8.48327781754611 -3.69211589514179 1.67855585971488 5.68417861700795 -53.7562627133493 -12.6143174575338 -34.7277074176126 63.6003309849492 0 0 0 0 0 32.8358948137618 -34.5886425414433 44.4961579733552 101.071582054718 0 0 0 0 0 73.8359405777483 0.0992478689130187 6.87445015695725 -36.5788595339498 0 0 20.7563833194184 -1.11943272545219 19.3597547644921 -7.93241392571613 5.96698410655792 7.63902497477335 -19.85074783199 0 0 -32.6026099032931 -1.50356324686971 -13.7618517946572 0 0 0 0 0 0
669.594999706745 0 -69.3231172442436 0 7.15327699243758 0 0 16.8180294394493 0 -19.6202248619479 -1.60494478242715 -5.67387674639149 -12.7415263052704 -9.53042404156622 8.47129952377328 -1.36484394409837 -0.219588979652618 4.59524085810075 -46.6930242130524 -13.8897757003851 -32.3427518860574 67.8518027243912 0 0 0 0 0 22.5502065220058 -32.5790232904135 43.9960435154953 95.9602919516089 0 0 0 0 0 66.830874037573 -2.5966272424785 7.26431963573284 -34.7939740094746 0 0 18.5077122050326 -1.28657045787584 17.3482435683764 -10.6773036084836 8.53867910492909 9.4258200869118 -36.2004977897824 0 0 -31.686387099988 -2.50931636616437 -14.7249342616612 0 0 0 0 0 0
672.065836656094 0 -69.5972371339798 0 7.02231249232249 0 0 16.2781645417213 0 -16.6616315246114 -2.38397561478473 -5.41058016114067 -14.2238569294401 -8.02215030323234 8.64599276306868 1.38632927796674 -2.56645245793598 3.33943442201531 -37.9138014758863 -11.816476262413 -30.9306129436633 71.2223371552524 0 0 0 0 0 12.8099213913523 -31.2592675688057 41.9441943626174 89.0218442832515 0 0 0 0 0 60.3717909547749 -5.13930758364288 7.32217946840211 -36.9107350106262 0 0 16.08092659385 -1.79569577423882 16.0958141689372 -11.6307806189061 7.43553851738013 9.89790648136857 -55.5107539697291 0 0 -26.7806271428255 -1.97827663942503 -15.9146600342552 0 0 0 0 0 0
674.379010093212 0 -69.8533458739519 0 6.79793649895818 0 0 15.6216897249222 0 -15.0541521752835 -4.11734814905818 -5.10601029689133 -15.4960190329852 -4.33226493618518 8.40061095211356 3.79638897826682 -5.03989969248891 2.17374298626883 -27.1893702457146 -6.73714440074318 -30.6513010513375 73.863639609188 0 0 0 0 0 3.26893670040827 -30.1847290792307 39.3131248683118 80.1035296801824 0 0 0 0 0 55.2222139163712 -7.22929774980915 7.88153873193581 -41.5723869304841 0 0 8.16609455149052 -3.11983124867421 6.1030430202315 -8.65555184041532 6.25218857346033 10.3344459678245 -74.7282937467874 0 0 -20.3298871874717 -0.567170040680257 -18.2925210501044 0 0 0 0 0 0
